<?xml version="1.0" encoding="UTF-8"?>
<svg width="800" height="400" viewBox="0 0 800 400" fill="none" xmlns="http://www.w3.org/2000/svg">
  <rect width="800" height="400" fill="#1F2937"/>
  <path d="M400 200C400 288.284 328.284 360 240 360C151.716 360 80 288.284 80 200C80 111.716 151.716 40 240 40C328.284 40 400 111.716 400 200Z" fill="#374151"/>
  <path d="M400 200C400 288.284 471.716 360 560 360C648.284 360 720 288.284 720 200C720 111.716 648.284 40 560 40C471.716 40 400 111.716 400 200Z" fill="#374151"/>
  <path d="M400 200C400 288.284 328.284 360 240 360C151.716 360 80 288.284 80 200C80 111.716 151.716 40 240 40C328.284 40 400 111.716 400 200Z" stroke="#4B5563" stroke-width="2"/>
  <path d="M400 200C400 288.284 471.716 360 560 360C648.284 360 720 288.284 720 200C720 111.716 648.284 40 560 40C471.716 40 400 111.716 400 200Z" stroke="#4B5563" stroke-width="2"/>
  <text x="400" y="220" text-anchor="middle" fill="#6B7280" font-family="Arial" font-size="24">Blog Post Image</text>
</svg> 